<svg width="24" height="24" viewBox="0 0 24 24" fill="none" xmlns="http://www.w3.org/2000/svg">
    <style>
        path { color: black; }
        @media (prefers-color-scheme: dark) {
        path { color: white; }
        }
    </style>
    <path fill-rule="evenodd" clip-rule="evenodd"
          d="M11.0873 2H17.9127C18.5148 1.99999 19.0004 1.99999 19.3937 2.03212C19.7986 2.0652 20.1543 2.1351 20.4833 2.30276C21.006 2.56907 21.4309 2.99402 21.6972 3.51669C21.8649 3.84574 21.9348 4.2014 21.9679 4.60632C22 4.99955 22 5.4853 22 6.08732V13.4684C22 14.0704 22 14.556 21.9679 14.9492C21.9348 15.3542 21.8649 15.7098 21.6972 16.0389C21.4309 16.5615 21.006 16.9865 20.4833 17.2528C20.1543 17.4205 19.7986 17.4904 19.3937 17.5234C19.0004 17.5556 18.5148 17.5556 17.9127 17.5556H17.9127H17.5556V17.9127V17.9128C17.5556 18.5148 17.5556 19.0004 17.5234 19.3937C17.4904 19.7986 17.4205 20.1543 17.2528 20.4833C16.9865 21.006 16.5615 21.4309 16.0389 21.6972C15.7098 21.8649 15.3542 21.9348 14.9492 21.9679C14.556 22 14.0702 22 13.4682 22H6.0871C5.48511 22 4.99954 22 4.60632 21.9679C4.2014 21.9348 3.84574 21.8649 3.51669 21.6972C2.99402 21.4309 2.56907 21.006 2.30276 20.4833C2.1351 20.1543 2.0652 19.7986 2.03212 19.3937C1.99999 19.0004 1.99999 18.5148 2 17.9127V10.5318C1.99999 9.92967 1.99999 9.44403 2.03212 9.05077C2.0652 8.64585 2.1351 8.29019 2.30276 7.96114C2.56907 7.43847 2.99402 7.01352 3.51669 6.7472C3.84574 6.57954 4.2014 6.50965 4.60632 6.47657C4.99958 6.44444 5.48523 6.44444 6.08733 6.44444H7V6.0873C6.99999 5.48521 6.99999 4.99958 7.03212 4.60632C7.0652 4.2014 7.1351 3.84574 7.30276 3.51669C7.56908 2.99402 7.99402 2.56907 8.51669 2.30276C8.84574 2.1351 9.2014 2.0652 9.60632 2.03212C9.99959 1.99999 10.4852 1.99999 11.0873 2ZM17.8889 16.4444H17.5556V10.5317V10.5317C17.5556 9.92961 17.5556 9.444 17.5234 9.05077C17.4904 8.64585 17.4205 8.29019 17.2528 7.96114C16.9865 7.43847 16.5615 7.01352 16.0389 6.7472C15.7098 6.57954 15.3542 6.50965 14.9492 6.47657C14.556 6.44444 14.0703 6.44444 13.4682 6.44444H8.11111V6.11111C8.11111 5.47966 8.11154 5.03949 8.13954 4.6968C8.16701 4.3606 8.21822 4.16744 8.29277 4.02113C8.45256 3.70752 8.70752 3.45256 9.02113 3.29277C9.16744 3.21822 9.3606 3.16701 9.6968 3.13954C10.0395 3.11154 10.4797 3.11111 11.1111 3.11111H17.8889C18.5203 3.11111 18.9605 3.11154 19.3032 3.13954C19.6394 3.16701 19.8326 3.21822 19.9789 3.29277C20.2925 3.45256 20.5474 3.70752 20.7072 4.02113C20.7818 4.16744 20.833 4.3606 20.8605 4.6968C20.8885 5.03949 20.8889 5.47966 20.8889 6.11111V13.4444C20.8889 14.0759 20.8885 14.5161 20.8605 14.8588C20.833 15.195 20.7818 15.3881 20.7072 15.5344C20.5474 15.848 20.2925 16.103 19.9789 16.2628C19.8326 16.3373 19.6394 16.3885 19.3032 16.416C18.9605 16.444 18.5203 16.4444 17.8889 16.4444ZM5.44167 18.5583C5.73611 18.8528 6.08889 19 6.5 19C6.77778 19 7.02778 18.9333 7.25 18.8C7.47778 18.6611 7.65833 18.4778 7.79167 18.25C7.93056 18.0222 8 17.7722 8 17.5C8 17.0889 7.85278 16.7361 7.55833 16.4417C7.26389 16.1472 6.91111 16 6.5 16C6.08889 16 5.73611 16.1472 5.44167 16.4417C5.14722 16.7361 5 17.0889 5 17.5C5 17.9111 5.14722 18.2639 5.44167 18.5583Z"
          fill="currentColor"/>
</svg>
